<?xml version="1.0" encoding="UTF-8" standalone="no"?>
<!-- Generated by Pixelmator Pro 3.6.9 -->

<svg
   width="2940"
   height="1912"
   viewBox="0 0 2940 1912"
   version="1.1"
   id="svg1"
   sodipodi:docname="logo.svg"
   inkscape:version="1.3.2 (091e20e, 2023-11-25)"
   xmlns:inkscape="http://www.inkscape.org/namespaces/inkscape"
   xmlns:sodipodi="http://sodipodi.sourceforge.net/DTD/sodipodi-0.dtd"
   xmlns="http://www.w3.org/2000/svg"
   xmlns:svg="http://www.w3.org/2000/svg">
  <defs
     id="defs1" />
  <sodipodi:namedview
     id="namedview1"
     pagecolor="#505050"
     bordercolor="#eeeeee"
     borderopacity="1"
     inkscape:showpageshadow="0"
     inkscape:pageopacity="0"
     inkscape:pagecheckerboard="0"
     inkscape:deskcolor="#505050"
     inkscape:zoom="0.37724833"
     inkscape:cx="1032.4764"
     inkscape:cy="819.08911"
     inkscape:window-width="1328"
     inkscape:window-height="845"
     inkscape:window-x="51"
     inkscape:window-y="37"
     inkscape:window-maximized="0"
     inkscape:current-layer="svg1" />
  <path
     id="path1"
     fill="none"
     stroke="#1ee5ce"
     stroke-width="31.518"
     stroke-linecap="round"
     stroke-linejoin="round"
     d="m 572.92258,1004.4506 c 0,-4.79036 0.83622,-30.44774 20.99908,-52.56263 84.47377,-92.65176 271.15212,-261.01217 346.48493,-315.37619 50.5435,-36.47474 92.30121,-49.56228 104.99551,-52.56271 34.0622,-8.05096 282.6518,-13.40988 314.9863,0 7.6211,3.16069 46.0686,9.30359 52.4976,52.56271 19.8102,133.29341 -324.0788,788.45852 -419.98168,788.44042 -6.71488,0 -15.27438,-1.0402 -25.53099,-5.6322 -82.98499,-37.1551 -288.59237,-247.4093 -373.45167,-362.3066 -19.7849,-26.7883 -20.99908,-47.607 -20.99908,-52.5628 z"
     inkscape:label="path1" />
  <path
     id="path2"
     fill="none"
     stroke="#1ee5ce"
     stroke-width="30"
     stroke-linecap="round"
     stroke-linejoin="round"
     d="m 500,1350 c 0,82.8428 67.15729,150 150,150 h 700 c 82.8428,0 150,-67.1572 150,-150 V 650 c 0,-82.84277 -67.1572,-150 -150,-150 H 650 c -82.84271,0 -150,67.15723 -150,150 z"
     sodipodi:insensitive="true" />
</svg>
