<svg width="270" height="270" viewBox="0 0 270 270" fill="none" xmlns="http://www.w3.org/2000/svg">
<path d="M86.4004 11H183.6C198.902 11 209.718 11.0086 218.171 11.6992C226.495 12.3793 231.555 13.6656 235.521 15.6865C243.612 19.8091 250.191 26.3875 254.313 34.4785C256.334 38.445 257.621 43.5049 258.301 51.8291C258.991 60.2818 259 71.0977 259 86.4004V183.6C259 198.902 258.991 209.718 258.301 218.171C257.621 226.495 256.334 231.555 254.313 235.521C250.191 243.612 243.612 250.191 235.521 254.313C231.555 256.334 226.495 257.621 218.171 258.301C209.718 258.991 198.902 259 183.6 259H86.4004C71.0977 259 60.2818 258.991 51.8291 258.301C43.5049 257.621 38.445 256.334 34.4785 254.313C26.3875 250.191 19.8091 243.612 15.6865 235.521C13.6656 231.555 12.3793 226.495 11.6992 218.171C11.0086 209.718 11 198.902 11 183.6V86.4004C11 71.0977 11.0086 60.2818 11.6992 51.8291C12.3793 43.5049 13.6656 38.445 15.6865 34.4785C19.8091 26.3875 26.3875 19.8091 34.4785 15.6865C38.445 13.6656 43.5049 12.3793 51.8291 11.6992C60.2818 11.0086 71.0977 11 86.4004 11Z" stroke="#21FBFF" stroke-width="22"/>
<path d="M203.662 47.4344C217.8 47.4336 227.119 62.0689 221.269 74.8378L202.651 105.951L202.597 106.043L202.544 106.135L180.255 145.067L142.078 210.32L139.519 214.469C132.965 225.089 117.979 226.277 109.834 216.821L109.764 216.74L109.693 216.66L52.7805 153.134C45.0224 144.474 45.7405 131.168 54.3854 123.393L54.5517 123.243L54.7121 123.087L107.474 71.5999C118.169 61.1636 122.303 57.2257 126.94 54.4383C131.278 51.8307 135.995 49.9104 140.921 48.7469C146.186 47.5032 151.895 47.4353 166.838 47.4353L194.5 47.4347L203.662 47.4344Z" stroke="#21FBFF" stroke-width="22"/>
</svg>
